Blocksync-Bold.ufo
<glyph name="asterisk" format="2">
  <advance width="366"/>
  <unicode hex="002A"/>
  <outline>
    <contour>
      <point x="102" y="393" type="line"/>
      <point x="113" y="387"/>
      <point x="127" y="389"/>
      <point x="133" y="398" type="curve"/>
      <point x="133" y="399"/>
      <point x="135" y="400"/>
      <point x="137" y="405" type="curve" smooth="yes"/>
      <point x="175" y="484" type="line" smooth="yes"/>
      <point x="178" y="490"/>
      <point x="179" y="495"/>
      <point x="183" y="495" type="curve" smooth="yes"/>
      <point x="187" y="495"/>
      <point x="188" y="490"/>
      <point x="191" y="484" type="curve" smooth="yes"/>
      <point x="229" y="405" type="line" smooth="yes"/>
      <point x="231" y="400"/>
      <point x="233" y="399"/>
      <point x="233" y="398" type="curve" smooth="yes"/>
      <point x="239" y="389"/>
      <point x="253" y="387"/>
      <point x="264" y="393" type="curve"/>
      <point x="296" y="417" type="line" smooth="yes"/>
      <point x="306" y="424"/>
      <point x="307" y="439"/>
      <point x="301" y="447" type="curve"/>
      <point x="301" y="448"/>
      <point x="299" y="450"/>
      <point x="295" y="454" type="curve" smooth="yes"/>
      <point x="229" y="515" type="line" smooth="yes"/>
      <point x="225" y="518"/>
      <point x="222" y="520"/>
      <point x="222" y="523" type="curve" smooth="yes"/>
      <point x="222" y="527"/>
      <point x="228" y="526"/>
      <point x="233" y="527" type="curve" smooth="yes"/>
      <point x="323" y="539" type="line" smooth="yes"/>
      <point x="328" y="540"/>
      <point x="330" y="541"/>
      <point x="331" y="541" type="curve" smooth="yes"/>
      <point x="341" y="544"/>
      <point x="348" y="557"/>
      <point x="345" y="569" type="curve"/>
      <point x="332" y="607" type="line" smooth="yes"/>
      <point x="328" y="618"/>
      <point x="315" y="624"/>
      <point x="305" y="621" type="curve"/>
      <point x="304" y="621"/>
      <point x="302" y="620"/>
      <point x="297" y="617" type="curve" smooth="yes"/>
      <point x="217" y="573" type="line" smooth="yes"/>
      <point x="213" y="571"/>
      <point x="209" y="566"/>
      <point x="204" y="566" type="curve" smooth="yes"/>
      <point x="199" y="566"/>
      <point x="206" y="577"/>
      <point x="207" y="582" type="curve" smooth="yes"/>
      <point x="224" y="670" type="line" smooth="yes"/>
      <point x="225" y="675"/>
      <point x="225" y="677"/>
      <point x="225" y="678" type="curve" smooth="yes"/>
      <point x="225" y="689"/>
      <point x="215" y="700"/>
      <point x="203" y="700" type="curve" smooth="yes"/>
      <point x="163" y="700" type="line" smooth="yes"/>
      <point x="151" y="700"/>
      <point x="141" y="689"/>
      <point x="141" y="678" type="curve" smooth="yes"/>
      <point x="141" y="677"/>
      <point x="141" y="675"/>
      <point x="142" y="670" type="curve" smooth="yes"/>
      <point x="158" y="583" type="line" smooth="yes"/>
      <point x="159" y="578"/>
      <point x="165" y="567"/>
      <point x="161" y="567" type="curve" smooth="yes"/>
      <point x="157" y="567"/>
      <point x="154" y="571"/>
      <point x="150" y="573" type="curve" smooth="yes"/>
      <point x="69" y="617" type="line" smooth="yes"/>
      <point x="64" y="620"/>
      <point x="62" y="621"/>
      <point x="61" y="621" type="curve"/>
      <point x="51" y="624"/>
      <point x="38" y="618"/>
      <point x="34" y="607" type="curve" smooth="yes"/>
      <point x="21" y="569" type="line"/>
      <point x="18" y="557"/>
      <point x="25" y="544"/>
      <point x="35" y="541" type="curve"/>
      <point x="36" y="541"/>
      <point x="38" y="540"/>
      <point x="43" y="539" type="curve" smooth="yes"/>
      <point x="131" y="528" type="line" smooth="yes"/>
      <point x="136" y="527"/>
      <point x="138" y="526"/>
      <point x="138" y="522" type="curve" smooth="yes"/>
      <point x="138" y="520"/>
      <point x="137" y="517"/>
      <point x="134" y="514" type="curve" smooth="yes"/>
      <point x="71" y="454" type="line" smooth="yes"/>
      <point x="67" y="450"/>
      <point x="65" y="448"/>
      <point x="65" y="447" type="curve" smooth="yes"/>
      <point x="59" y="439"/>
      <point x="60" y="424"/>
      <point x="70" y="417" type="curve" smooth="yes"/>
    </contour>
  </outline>
</glyph>
<glyph name="comma" format="2">
  <advance width="190"/>
  <unicode hex="002C"/>
  <outline>
    <contour>
      <point x="70" y="-127" type="curve" smooth="yes"/>
      <point x="132" y="-127"/>
      <point x="170" y="-54"/>
      <point x="170" y="20" type="curve" smooth="yes"/>
      <point x="170" y="110" type="line" smooth="yes"/>
      <point x="170" y="140"/>
      <point x="160" y="150"/>
      <point x="130" y="150" type="curve" smooth="yes"/>
      <point x="60" y="150" type="line" smooth="yes"/>
      <point x="30" y="150"/>
      <point x="20" y="140"/>
      <point x="20" y="110" type="curve" smooth="yes"/>
      <point x="20" y="40" type="line" smooth="yes"/>
      <point x="20" y="10"/>
      <point x="30" y="0"/>
      <point x="60" y="0" type="curve" smooth="yes"/>
      <point x="82" y="0" type="line" smooth="yes"/>
      <point x="93" y="0"/>
      <point x="97" y="-5"/>
      <point x="97" y="-15" type="curve" smooth="yes"/>
      <point x="97" y="-49"/>
      <point x="86" y="-64"/>
      <point x="66" y="-79" type="curve" smooth="yes"/>
      <point x="58" y="-85"/>
      <point x="55" y="-90"/>
      <point x="55" y="-97" type="curve" smooth="yes"/>
      <point x="55" y="-112" type="line" smooth="yes"/>
      <point x="55" y="-122"/>
      <point x="60" y="-127"/>
    </contour>
  </outline>
</glyph>
<glyph name="hyphen" format="2">
  <advance width="300"/>
  <unicode hex="002D"/>
  <outline>
    <contour>
      <point x="60" y="300" type="curve" smooth="yes"/>
      <point x="240" y="300" type="line" smooth="yes"/>
      <point x="270" y="300"/>
      <point x="280" y="310"/>
      <point x="280" y="340" type="curve" smooth="yes"/>
      <point x="280" y="410" type="line" smooth="yes"/>
      <point x="280" y="440"/>
      <point x="270" y="450"/>
      <point x="240" y="450" type="curve" smooth="yes"/>
      <point x="60" y="450" type="line" smooth="yes"/>
      <point x="30" y="450"/>
      <point x="20" y="440"/>
      <point x="20" y="410" type="curve" smooth="yes"/>
      <point x="20" y="340" type="line" smooth="yes"/>
      <point x="20" y="310"/>
      <point x="30" y="300"/>
    </contour>
  </outline>
</glyph>
<glyph name="period" format="2">
  <advance width="190"/>
  <unicode hex="002E"/>
  <outline>
    <contour>
      <point x="60" y="0" type="curve" smooth="yes"/>
      <point x="130" y="0" type="line" smooth="yes"/>
      <point x="160" y="0"/>
      <point x="170" y="10"/>
      <point x="170" y="40" type="curve" smooth="yes"/>
      <point x="170" y="110" type="line" smooth="yes"/>
      <point x="170" y="140"/>
      <point x="160" y="150"/>
      <point x="130" y="150" type="curve" smooth="yes"/>
      <point x="60" y="150" type="line" smooth="yes"/>
      <point x="30" y="150"/>
      <point x="20" y="140"/>
      <point x="20" y="110" type="curve" smooth="yes"/>
      <point x="20" y="40" type="line" smooth="yes"/>
      <point x="20" y="10"/>
      <point x="30" y="0"/>
    </contour>
  </outline>
</glyph>
<glyph name="one" format="2">
  <advance width="310"/>
  <unicode hex="0031"/>
  <outline>
    <contour>
      <point x="150" y="0" type="curve" smooth="yes"/>
      <point x="250" y="0" type="line" smooth="yes"/>
      <point x="280" y="0"/>
      <point x="290" y="10"/>
      <point x="290" y="40" type="curve" smooth="yes"/>
      <point x="290" y="660" type="line" smooth="yes"/>
      <point x="290" y="690"/>
      <point x="280" y="700"/>
      <point x="250" y="700" type="curve" smooth="yes"/>
      <point x="150" y="700" type="line" smooth="yes"/>
      <point x="120" y="700"/>
      <point x="110" y="690"/>
      <point x="110" y="660" type="curve" smooth="yes"/>
      <point x="110" y="610"/>
      <point x="90" y="590"/>
      <point x="40" y="590" type="curve" smooth="yes"/>
      <point x="20" y="590"/>
      <point x="10" y="580"/>
      <point x="10" y="560" type="curve" smooth="yes"/>
      <point x="10" y="490" type="line" smooth="yes"/>
      <point x="10" y="470"/>
      <point x="20" y="460"/>
      <point x="40" y="460" type="curve" smooth="yes"/>
      <point x="90" y="460" type="line" smooth="yes"/>
      <point x="105" y="460"/>
      <point x="110" y="455"/>
      <point x="110" y="440" type="curve" smooth="yes"/>
      <point x="110" y="40" type="line" smooth="yes"/>
      <point x="110" y="10"/>
      <point x="120" y="0"/>
    </contour>
  </outline>
</glyph>
<glyph name="seven" format="2">
  <advance width="430"/>
  <unicode hex="0037"/>
  <outline>
    <contour>
      <point x="80" y="0" type="curve" smooth="yes"/>
      <point x="180" y="0" type="line" smooth="yes"/>
      <point x="210" y="0"/>
      <point x="220" y="10"/>
      <point x="220" y="40" type="curve" smooth="yes"/>
      <point x="220" y="207"/>
      <point x="256" y="386"/>
      <point x="382" y="530" type="curve" smooth="yes"/>
      <point x="396" y="546"/>
      <point x="420" y="566"/>
      <point x="420" y="600" type="curve" smooth="yes"/>
      <point x="420" y="660" type="line" smooth="yes"/>
      <point x="420" y="690"/>
      <point x="410" y="700"/>
      <point x="380" y="700" type="curve" smooth="yes"/>
      <point x="50" y="700" type="line" smooth="yes"/>
      <point x="20" y="700"/>
      <point x="10" y="690"/>
      <point x="10" y="660" type="curve" smooth="yes"/>
      <point x="10" y="600" type="line" smooth="yes"/>
      <point x="10" y="570"/>
      <point x="20" y="560"/>
      <point x="50" y="560" type="curve" smooth="yes"/>
      <point x="196" y="560" type="line" smooth="yes"/>
      <point x="211" y="560"/>
      <point x="218" y="555"/>
      <point x="218" y="540" type="curve" smooth="yes"/>
      <point x="218" y="530"/>
      <point x="211" y="520"/>
      <point x="206" y="513" type="curve" smooth="yes"/>
      <point x="112" y="375"/>
      <point x="40" y="206"/>
      <point x="40" y="40" type="curve" smooth="yes"/>
      <point x="40" y="10"/>
      <point x="50" y="0"/>
    </contour>
  </outline>
</glyph>
<glyph name="eight" format="2">
  <advance width="472"/>
  <unicode hex="0038"/>
  <outline>
    <contour>
      <point x="236" y="-10" type="curve" smooth="yes"/>
      <point x="376" y="-10"/>
      <point x="456" y="60"/>
      <point x="456" y="200" type="curve" smooth="yes"/>
      <point x="456" y="230" type="line" smooth="yes"/>
      <point x="456" y="299"/>
      <point x="430" y="336"/>
      <point x="409" y="357" type="curve" smooth="yes"/>
      <point x="401" y="365"/>
      <point x="396" y="371"/>
      <point x="396" y="376" type="curve" smooth="yes"/>
      <point x="396" y="383"/>
      <point x="397" y="385"/>
      <point x="405" y="395" type="curve" smooth="yes"/>
      <point x="431" y="427"/>
      <point x="446" y="460"/>
      <point x="446" y="500" type="curve" smooth="yes"/>
      <point x="446" y="520" type="line" smooth="yes"/>
      <point x="446" y="650"/>
      <point x="376" y="710"/>
      <point x="236" y="710" type="curve" smooth="yes"/>
      <point x="96" y="710"/>
      <point x="26" y="650"/>
      <point x="26" y="520" type="curve" smooth="yes"/>
      <point x="26" y="500" type="line" smooth="yes"/>
      <point x="26" y="457"/>
      <point x="36" y="429"/>
      <point x="64" y="395" type="curve" smooth="yes"/>
      <point x="75" y="382"/>
      <point x="76" y="383"/>
      <point x="76" y="376" type="curve" smooth="yes"/>
      <point x="76" y="370"/>
      <point x="68" y="362"/>
      <point x="60" y="353" type="curve" smooth="yes"/>
      <point x="39" y="327"/>
      <point x="16" y="299"/>
      <point x="16" y="230" type="curve" smooth="yes"/>
      <point x="16" y="200" type="line" smooth="yes"/>
      <point x="16" y="60"/>
      <point x="96" y="-10"/>
    </contour>
    <contour>
      <point x="236" y="450" type="curve" smooth="yes"/>
      <point x="206" y="450"/>
      <point x="196" y="470"/>
      <point x="196" y="500" type="curve" smooth="yes"/>
      <point x="196" y="510" type="line" smooth="yes"/>
      <point x="196" y="540"/>
      <point x="206" y="560"/>
      <point x="236" y="560" type="curve" smooth="yes"/>
      <point x="266" y="560"/>
      <point x="276" y="540"/>
      <point x="276" y="510" type="curve" smooth="yes"/>
      <point x="276" y="500" type="line" smooth="yes"/>
      <point x="276" y="470"/>
      <point x="266" y="450"/>
    </contour>
    <contour>
      <point x="236" y="140" type="curve" smooth="yes"/>
      <point x="206" y="140"/>
      <point x="196" y="160"/>
      <point x="196" y="190" type="curve" smooth="yes"/>
      <point x="196" y="250" type="line" smooth="yes"/>
      <point x="196" y="280"/>
      <point x="206" y="300"/>
      <point x="236" y="300" type="curve" smooth="yes"/>
      <point x="266" y="300"/>
      <point x="276" y="280"/>
      <point x="276" y="250" type="curve" smooth="yes"/>
      <point x="276" y="190" type="line" smooth="yes"/>
      <point x="276" y="160"/>
      <point x="266" y="140"/>
    </contour>
  </outline>
</glyph>
<glyph name="nine" format="2">
  <advance width="469"/>
  <unicode hex="0039"/>
  <outline>
    <contour>
      <point x="232" y="710" type="curve" smooth="yes"/>
      <point x="92" y="710"/>
      <point x="12" y="640"/>
      <point x="12" y="500" type="curve" smooth="yes"/>
      <point x="12" y="450" type="line" smooth="yes"/>
      <point x="12" y="334"/>
      <point x="79" y="292"/>
      <point x="165" y="292" type="curve" smooth="yes"/>
      <point x="234" y="292"/>
      <point x="249" y="313"/>
      <point x="262" y="313" type="curve" smooth="yes"/>
      <point x="269" y="313"/>
      <point x="272" y="310"/>
      <point x="272" y="297" type="curve" smooth="yes"/>
      <point x="272" y="180" type="line" smooth="yes"/>
      <point x="272" y="150"/>
      <point x="262" y="130"/>
      <point x="232" y="130" type="curve" smooth="yes"/>
      <point x="202" y="130"/>
      <point x="192" y="150"/>
      <point x="192" y="180" type="curve" smooth="yes"/>
      <point x="192" y="210"/>
      <point x="182" y="220"/>
      <point x="152" y="220" type="curve" smooth="yes"/>
      <point x="62" y="220" type="line" smooth="yes"/>
      <point x="32" y="220"/>
      <point x="22" y="210"/>
      <point x="22" y="180" type="curve" smooth="yes"/>
      <point x="22" y="70"/>
      <point x="92" y="-10"/>
      <point x="232" y="-10" type="curve" smooth="yes"/>
      <point x="372" y="-10"/>
      <point x="452" y="60"/>
      <point x="452" y="200" type="curve" smooth="yes"/>
      <point x="452" y="500" type="line" smooth="yes"/>
      <point x="452" y="640"/>
      <point x="372" y="710"/>
    </contour>
    <contour>
      <point x="232" y="560" type="curve" smooth="yes"/>
      <point x="262" y="560"/>
      <point x="272" y="540"/>
      <point x="272" y="510" type="curve" smooth="yes"/>
      <point x="272" y="450" type="line" smooth="yes"/>
      <point x="272" y="420"/>
      <point x="262" y="400"/>
      <point x="232" y="400" type="curve" smooth="yes"/>
      <point x="202" y="400"/>
      <point x="192" y="420"/>
      <point x="192" y="450" type="curve" smooth="yes"/>
      <point x="192" y="510" type="line" smooth="yes"/>
      <point x="192" y="540"/>
      <point x="202" y="560"/>
    </contour>
  </outline>
</glyph>
<glyph name="greater" format="2">
  <advance width="444"/>
  <unicode hex="003E"/>
  <outline>
    <contour>
      <point x="52" y="0" type="curve" smooth="yes"/>
      <point x="82" y="0" type="line" smooth="yes"/>
      <point x="102" y="0"/>
      <point x="120" y="12"/>
      <point x="142" y="34" type="curve" smooth="yes"/>
      <point x="368" y="255" type="line" smooth="yes"/>
      <point x="423" y="308"/>
      <point x="436" y="325"/>
      <point x="436" y="350" type="curve" smooth="yes"/>
      <point x="436" y="369"/>
      <point x="423" y="388"/>
      <point x="368" y="443" type="curve" smooth="yes"/>
      <point x="142" y="666" type="line" smooth="yes"/>
      <point x="118" y="689"/>
      <point x="102" y="700"/>
      <point x="82" y="700" type="curve" smooth="yes"/>
      <point x="52" y="700" type="line" smooth="yes"/>
      <point x="22" y="700"/>
      <point x="12" y="684"/>
      <point x="12" y="660" type="curve" smooth="yes"/>
      <point x="12" y="598" type="line" smooth="yes"/>
      <point x="12" y="571"/>
      <point x="31" y="551"/>
      <point x="51" y="532" type="curve" smooth="yes"/>
      <point x="193" y="398" type="line" smooth="yes"/>
      <point x="211" y="381"/>
      <point x="229" y="365"/>
      <point x="229" y="346" type="curve" smooth="yes"/>
      <point x="229" y="327"/>
      <point x="210" y="310"/>
      <point x="193" y="294" type="curve" smooth="yes"/>
      <point x="51" y="159" type="line" smooth="yes"/>
      <point x="31" y="140"/>
      <point x="12" y="120"/>
      <point x="12" y="93" type="curve" smooth="yes"/>
      <point x="12" y="40" type="line" smooth="yes"/>
      <point x="12" y="16"/>
      <point x="22" y="0"/>
    </contour>
  </outline>
</glyph>
<glyph name="question" format="2">
  <advance width="470"/>
  <unicode hex="003F"/>
  <outline>
    <contour>
      <point x="170" y="210" type="curve" smooth="yes"/>
      <point x="270" y="210" type="line" smooth="yes"/>
      <point x="300" y="210"/>
      <point x="308" y="219"/>
      <point x="309" y="250" type="curve" smooth="yes"/>
      <point x="310" y="280" type="line" smooth="yes"/>
      <point x="311" y="301"/>
      <point x="333" y="318"/>
      <point x="358" y="337" type="curve" smooth="yes"/>
      <point x="414" y="379"/>
      <point x="450" y="410"/>
      <point x="450" y="500" type="curve" smooth="yes"/>
      <point x="450" y="640"/>
      <point x="370" y="710"/>
      <point x="230" y="710" type="curve" smooth="yes"/>
      <point x="90" y="710"/>
      <point x="20" y="640"/>
      <point x="20" y="500" type="curve" smooth="yes"/>
      <point x="20" y="470"/>
      <point x="30" y="460"/>
      <point x="60" y="460" type="curve" smooth="yes"/>
      <point x="150" y="460" type="line" smooth="yes"/>
      <point x="180" y="460"/>
      <point x="190" y="470"/>
      <point x="190" y="500" type="curve" smooth="yes"/>
      <point x="190" y="520" type="line" smooth="yes"/>
      <point x="190" y="550"/>
      <point x="200" y="570"/>
      <point x="230" y="570" type="curve" smooth="yes"/>
      <point x="259" y="570"/>
      <point x="270" y="540"/>
      <point x="270" y="510" type="curve" smooth="yes"/>
      <point x="270" y="446"/>
      <point x="266" y="443"/>
      <point x="204" y="396" type="curve" smooth="yes"/>
      <point x="139" y="347"/>
      <point x="130" y="311"/>
      <point x="130" y="280" type="curve" smooth="yes"/>
      <point x="130" y="250" type="line" smooth="yes"/>
      <point x="130" y="221"/>
      <point x="140" y="210"/>
    </contour>
    <contour>
      <point x="185" y="0" type="curve" smooth="yes"/>
      <point x="255" y="0" type="line" smooth="yes"/>
      <point x="285" y="0"/>
      <point x="295" y="10"/>
      <point x="295" y="40" type="curve" smooth="yes"/>
      <point x="295" y="110" type="line" smooth="yes"/>
      <point x="295" y="140"/>
      <point x="285" y="150"/>
      <point x="255" y="150" type="curve" smooth="yes"/>
      <point x="185" y="150" type="line" smooth="yes"/>
      <point x="155" y="150"/>
      <point x="145" y="140"/>
      <point x="145" y="110" type="curve" smooth="yes"/>
      <point x="145" y="40" type="line" smooth="yes"/>
      <point x="145" y="10"/>
      <point x="155" y="0"/>
    </contour>
  </outline>
</glyph>
<glyph name="A" format="2">
  <advance width="480"/>
  <unicode hex="0041"/>
  <anchor x="240" y="0" name="bottom"/>
  <anchor x="240" y="290" name="tmp"/>
  <anchor x="240" y="700" name="top"/>
  <outline>
    <contour>
      <point x="50" y="0" type="curve" smooth="yes"/>
      <point x="152" y="0" type="line" smooth="yes"/>
      <point x="172" y="0"/>
      <point x="189" y="9"/>
      <point x="192" y="40" type="curve" smooth="yes"/>
      <point x="200" y="130" type="line" smooth="yes"/>
      <point x="201" y="145"/>
      <point x="205" y="150"/>
      <point x="220" y="150" type="curve" smooth="yes"/>
      <point x="260" y="150" type="line" smooth="yes"/>
      <point x="275" y="150"/>
      <point x="279" y="145"/>
      <point x="280" y="130" type="curve" smooth="yes"/>
      <point x="288" y="40" type="line" smooth="yes"/>
      <point x="291" y="9"/>
      <point x="308" y="0"/>
      <point x="328" y="0" type="curve" smooth="yes"/>
      <point x="430" y="0" type="line" smooth="yes"/>
      <point x="460" y="0"/>
      <point x="470" y="10"/>
      <point x="470" y="40" type="curve" smooth="yes"/>
      <point x="470" y="50"/>
      <point x="467" y="79"/>
      <point x="460" y="128" type="curve" smooth="yes"/>
      <point x="392" y="640" type="line" smooth="yes"/>
      <point x="387" y="680"/>
      <point x="380" y="700"/>
      <point x="340" y="700" type="curve" smooth="yes"/>
      <point x="140" y="700" type="line" smooth="yes"/>
      <point x="100" y="700"/>
      <point x="93" y="680"/>
      <point x="88" y="640" type="curve" smooth="yes"/>
      <point x="20" y="128" type="line" smooth="yes"/>
      <point x="14" y="82"/>
      <point x="10" y="50"/>
      <point x="10" y="40" type="curve" smooth="yes"/>
      <point x="10" y="10"/>
      <point x="20" y="0"/>
    </contour>
    <contour>
      <point x="230" y="290" type="line" smooth="yes"/>
      <point x="214" y="290"/>
      <point x="210" y="295"/>
      <point x="210" y="306" type="curve" smooth="yes"/>
      <point x="210" y="313"/>
      <point x="210" y="320"/>
      <point x="211" y="331" type="curve" smooth="yes"/>
      <point x="225" y="530" type="line" smooth="yes"/>
      <point x="226" y="541"/>
      <point x="230" y="550"/>
      <point x="240" y="550" type="curve" smooth="yes"/>
      <point x="250" y="550"/>
      <point x="254" y="541"/>
      <point x="255" y="530" type="curve" smooth="yes"/>
      <point x="269" y="331" type="line" smooth="yes"/>
      <point x="270" y="320"/>
      <point x="270" y="313"/>
      <point x="270" y="306" type="curve" smooth="yes"/>
      <point x="270" y="295"/>
      <point x="265" y="290"/>
      <point x="250" y="290" type="curve" smooth="yes"/>
    </contour>
  </outline>
</glyph>
<glyph name="C" format="2">
  <advance width="470"/>
  <unicode hex="0043"/>
  <anchor x="240" y="700" name="top"/>
  <outline>
    <contour>
      <point x="235" y="-10" type="curve" smooth="yes"/>
      <point x="375" y="-10"/>
      <point x="455" y="60"/>
      <point x="455" y="200" type="curve" smooth="yes"/>
      <point x="455" y="240" type="line" smooth="yes"/>
      <point x="455" y="270"/>
      <point x="445" y="280"/>
      <point x="415" y="280" type="curve" smooth="yes"/>
      <point x="315" y="280" type="line" smooth="yes"/>
      <point x="285" y="280"/>
      <point x="275" y="270"/>
      <point x="275" y="240" type="curve" smooth="yes"/>
      <point x="275" y="180" type="line" smooth="yes"/>
      <point x="275" y="150"/>
      <point x="266" y="130"/>
      <point x="235" y="130" type="curve" smooth="yes"/>
      <point x="205" y="130"/>
      <point x="195" y="150"/>
      <point x="195" y="180" type="curve" smooth="yes"/>
      <point x="195" y="520" type="line" smooth="yes"/>
      <point x="195" y="550"/>
      <point x="205" y="570"/>
      <point x="235" y="570" type="curve" smooth="yes"/>
      <point x="265" y="570"/>
      <point x="275" y="550"/>
      <point x="275" y="520" type="curve" smooth="yes"/>
      <point x="275" y="460" type="line" smooth="yes"/>
      <point x="275" y="430"/>
      <point x="285" y="420"/>
      <point x="315" y="420" type="curve" smooth="yes"/>
      <point x="415" y="420" type="line" smooth="yes"/>
      <point x="445" y="420"/>
      <point x="455" y="430"/>
      <point x="455" y="460" type="curve" smooth="yes"/>
      <point x="455" y="500" type="line" smooth="yes"/>
      <point x="455" y="640"/>
      <point x="375" y="710"/>
      <point x="235" y="710" type="curve" smooth="yes"/>
      <point x="95" y="710"/>
      <point x="15" y="640"/>
      <point x="15" y="500" type="curve" smooth="yes"/>
      <point x="15" y="200" type="line" smooth="yes"/>
      <point x="15" y="60"/>
      <point x="95" y="-10"/>
    </contour>
  </outline>
</glyph>
<glyph name="D" format="2">
  <advance width="477"/>
  <unicode hex="0044"/>
  <anchor x="240" y="700" name="top"/>
  <outline>
    <contour>
      <point x="60" y="0" type="curve" smooth="yes"/>
      <point x="250" y="0" type="line" smooth="yes"/>
      <point x="390" y="0"/>
      <point x="460" y="70"/>
      <point x="460" y="200" type="curve" smooth="yes"/>
      <point x="460" y="500" type="line" smooth="yes"/>
      <point x="460" y="630"/>
      <point x="390" y="700"/>
      <point x="250" y="700" type="curve" smooth="yes"/>
      <point x="60" y="700" type="line" smooth="yes"/>
      <point x="30" y="700"/>
      <point x="20" y="690"/>
      <point x="20" y="660" type="curve" smooth="yes"/>
      <point x="20" y="40" type="line" smooth="yes"/>
      <point x="20" y="10"/>
      <point x="30" y="0"/>
    </contour>
    <contour>
      <point x="220" y="150" type="line" smooth="yes"/>
      <point x="205" y="150"/>
      <point x="200" y="155"/>
      <point x="200" y="170" type="curve" smooth="yes"/>
      <point x="200" y="530" type="line" smooth="yes"/>
      <point x="200" y="545"/>
      <point x="205" y="550"/>
      <point x="220" y="550" type="curve" smooth="yes"/>
      <point x="240" y="550" type="line" smooth="yes"/>
      <point x="270" y="550"/>
      <point x="280" y="540"/>
      <point x="280" y="510" type="curve" smooth="yes"/>
      <point x="280" y="190" type="line" smooth="yes"/>
      <point x="280" y="160"/>
      <point x="270" y="150"/>
      <point x="240" y="150" type="curve" smooth="yes"/>
    </contour>
  </outline>
</glyph>
<glyph name="E" format="2">
  <advance width="385"/>
  <unicode hex="0045"/>
  <anchor x="191" y="700" name="top"/>
  <outline>
    <contour>
      <point x="60" y="0" type="curve" smooth="yes"/>
      <point x="330" y="0" type="line" smooth="yes"/>
      <point x="360" y="0"/>
      <point x="370" y="10"/>
      <point x="370" y="40" type="curve" smooth="yes"/>
      <point x="370" y="110" type="line" smooth="yes"/>
      <point x="370" y="140"/>
      <point x="360" y="150"/>
      <point x="330" y="150" type="curve" smooth="yes"/>
      <point x="220" y="150" type="line" smooth="yes"/>
      <point x="205" y="150"/>
      <point x="200" y="155"/>
      <point x="200" y="170" type="curve" smooth="yes"/>
      <point x="200" y="270" type="line" smooth="yes"/>
      <point x="200" y="285"/>
      <point x="205" y="290"/>
      <point x="220" y="290" type="curve" smooth="yes"/>
      <point x="290" y="290" type="line" smooth="yes"/>
      <point x="320" y="290"/>
      <point x="330" y="300"/>
      <point x="330" y="330" type="curve" smooth="yes"/>
      <point x="330" y="390" type="line" smooth="yes"/>
      <point x="330" y="420"/>
      <point x="320" y="430"/>
      <point x="290" y="430" type="curve" smooth="yes"/>
      <point x="220" y="430" type="line" smooth="yes"/>
      <point x="205" y="430"/>
      <point x="200" y="435"/>
      <point x="200" y="450" type="curve" smooth="yes"/>
      <point x="200" y="530" type="line" smooth="yes"/>
      <point x="200" y="545"/>
      <point x="205" y="550"/>
      <point x="220" y="550" type="curve" smooth="yes"/>
      <point x="330" y="550" type="line" smooth="yes"/>
      <point x="360" y="550"/>
      <point x="370" y="560"/>
      <point x="370" y="590" type="curve" smooth="yes"/>
      <point x="370" y="660" type="line" smooth="yes"/>
      <point x="370" y="690"/>
      <point x="360" y="700"/>
      <point x="330" y="700" type="curve" smooth="yes"/>
      <point x="60" y="700" type="line" smooth="yes"/>
      <point x="30" y="700"/>
      <point x="20" y="690"/>
      <point x="20" y="660" type="curve" smooth="yes"/>
      <point x="20" y="40" type="line" smooth="yes"/>
      <point x="20" y="10"/>
      <point x="30" y="0"/>
    </contour>
  </outline>
</glyph>
<glyph name="H" format="2">
  <advance width="480"/>
  <unicode hex="0048"/>
  <outline>
    <contour>
      <point x="50" y="0" type="curve" smooth="yes"/>
      <point x="190" y="0" type="line" smooth="yes"/>
      <point x="220" y="0"/>
      <point x="230" y="10"/>
      <point x="230" y="40" type="curve" smooth="yes"/>
      <point x="230" y="260" type="line" smooth="yes"/>
      <point x="230" y="275"/>
      <point x="233" y="280"/>
      <point x="238" y="280" type="curve" smooth="yes"/>
      <point x="242" y="280" type="line" smooth="yes"/>
      <point x="247" y="280"/>
      <point x="250" y="275"/>
      <point x="250" y="260" type="curve" smooth="yes"/>
      <point x="250" y="40" type="line" smooth="yes"/>
      <point x="250" y="10"/>
      <point x="260" y="0"/>
      <point x="290" y="0" type="curve" smooth="yes"/>
      <point x="430" y="0" type="line" smooth="yes"/>
      <point x="455" y="0"/>
      <point x="470" y="10"/>
      <point x="470" y="40" type="curve" smooth="yes"/>
      <point x="470" y="660" type="line" smooth="yes"/>
      <point x="470" y="690"/>
      <point x="460" y="700"/>
      <point x="430" y="700" type="curve" smooth="yes"/>
      <point x="290" y="700" type="line" smooth="yes"/>
      <point x="260" y="700"/>
      <point x="250" y="690"/>
      <point x="250" y="660" type="curve" smooth="yes"/>
      <point x="250" y="470" type="line" smooth="yes"/>
      <point x="250" y="455"/>
      <point x="247" y="450"/>
      <point x="242" y="450" type="curve" smooth="yes"/>
      <point x="238" y="450" type="line" smooth="yes"/>
      <point x="233" y="450"/>
      <point x="230" y="455"/>
      <point x="230" y="470" type="curve" smooth="yes"/>
      <point x="230" y="660" type="line" smooth="yes"/>
      <point x="230" y="690"/>
      <point x="220" y="700"/>
      <point x="190" y="700" type="curve" smooth="yes"/>
      <point x="50" y="700" type="line" smooth="yes"/>
      <point x="20" y="700"/>
      <point x="10" y="690"/>
      <point x="10" y="660" type="curve" smooth="yes"/>
      <point x="10" y="40" type="line" smooth="yes"/>
      <point x="10" y="10"/>
      <point x="10" y="0"/>
    </contour>
  </outline>
</glyph>
<glyph name="J" format="2">
  <advance width="305"/>
  <unicode hex="004A"/>
  <outline>
    <contour>
      <point x="50" y="0" type="curve" smooth="yes"/>
      <point x="151" y="0" type="line" smooth="yes"/>
      <point x="271" y="0"/>
      <point x="300" y="40"/>
      <point x="300" y="200" type="curve" smooth="yes"/>
      <point x="300" y="660" type="line" smooth="yes"/>
      <point x="300" y="690"/>
      <point x="290" y="700"/>
      <point x="260" y="700" type="curve" smooth="yes"/>
      <point x="120" y="700" type="line" smooth="yes"/>
      <point x="90" y="700"/>
      <point x="80" y="690"/>
      <point x="80" y="660" type="curve" smooth="yes"/>
      <point x="80" y="160" type="line" smooth="yes"/>
      <point x="80" y="145"/>
      <point x="75" y="140"/>
      <point x="60" y="140" type="curve" smooth="yes"/>
      <point x="50" y="140" type="line" smooth="yes"/>
      <point x="20" y="140"/>
      <point x="10" y="130"/>
      <point x="10" y="100" type="curve" smooth="yes"/>
      <point x="10" y="40" type="line" smooth="yes"/>
      <point x="10" y="10"/>
      <point x="20" y="0"/>
    </contour>
  </outline>
</glyph>
<glyph name="K" format="2">
  <advance width="474"/>
  <unicode hex="004B"/>
  <anchor x="235" y="0" name="bottom"/>
  <outline>
    <contour>
      <point x="60" y="-1" type="curve" smooth="yes"/>
      <point x="160" y="0" type="line" smooth="yes"/>
      <point x="190" y="0"/>
      <point x="200" y="10"/>
      <point x="200" y="40" type="curve" smooth="yes"/>
      <point x="200" y="290" type="line" smooth="yes"/>
      <point x="200" y="297"/>
      <point x="203" y="300"/>
      <point x="210" y="300" type="curve" smooth="yes"/>
      <point x="215" y="300"/>
      <point x="221" y="297"/>
      <point x="225" y="280" type="curve" smooth="yes"/>
      <point x="280" y="40" type="line" smooth="yes"/>
      <point x="287" y="10"/>
      <point x="300" y="0"/>
      <point x="330" y="0" type="curve" smooth="yes"/>
      <point x="423" y="0" type="line" smooth="yes"/>
      <point x="453" y="0"/>
      <point x="463" y="10"/>
      <point x="463" y="40" type="curve" smooth="yes"/>
      <point x="463" y="60"/>
      <point x="457" y="78"/>
      <point x="450" y="105" type="curve" smooth="yes"/>
      <point x="384" y="346" type="line" smooth="yes"/>
      <point x="378" y="367"/>
      <point x="379" y="381"/>
      <point x="379" y="391" type="curve" smooth="yes"/>
      <point x="379" y="401"/>
      <point x="385" y="417"/>
      <point x="394" y="446" type="curve" smooth="yes"/>
      <point x="444" y="603" type="line" smooth="yes"/>
      <point x="449" y="619"/>
      <point x="464" y="656"/>
      <point x="464" y="670" type="curve" smooth="yes"/>
      <point x="464" y="690"/>
      <point x="454" y="700"/>
      <point x="424" y="700" type="curve" smooth="yes"/>
      <point x="330" y="700" type="line" smooth="yes"/>
      <point x="303" y="700"/>
      <point x="289" y="692"/>
      <point x="280" y="660" type="curve" smooth="yes"/>
      <point x="225" y="470" type="line" smooth="yes"/>
      <point x="221" y="457"/>
      <point x="215" y="450"/>
      <point x="210" y="450" type="curve" smooth="yes"/>
      <point x="203" y="450"/>
      <point x="200" y="453"/>
      <point x="200" y="460" type="curve" smooth="yes"/>
      <point x="200" y="660" type="line" smooth="yes"/>
      <point x="200" y="690"/>
      <point x="190" y="700"/>
      <point x="160" y="700" type="curve" smooth="yes"/>
      <point x="60" y="700" type="line" smooth="yes"/>
      <point x="30" y="700"/>
      <point x="20" y="690"/>
      <point x="20" y="660" type="curve" smooth="yes"/>
      <point x="20" y="40" type="line" smooth="yes"/>
      <point x="20" y="10"/>
      <point x="30" y="-1"/>
    </contour>
  </outline>
</glyph>
<glyph name="L" format="2">
  <advance width="350"/>
  <unicode hex="004C"/>
  <anchor x="175" y="0" name="bottom"/>
  <anchor x="195" y="700" name="topright"/>
  <outline>
    <contour>
      <point x="60" y="0" type="curve" smooth="yes"/>
      <point x="300" y="0" type="line" smooth="yes"/>
      <point x="330" y="0"/>
      <point x="340" y="10"/>
      <point x="340" y="40" type="curve" smooth="yes"/>
      <point x="340" y="110" type="line" smooth="yes"/>
      <point x="340" y="140"/>
      <point x="330" y="150"/>
      <point x="300" y="150" type="curve" smooth="yes"/>
      <point x="220" y="150" type="line" smooth="yes"/>
      <point x="205" y="150"/>
      <point x="200" y="155"/>
      <point x="200" y="170" type="curve" smooth="yes"/>
      <point x="200" y="660" type="line" smooth="yes"/>
      <point x="200" y="690"/>
      <point x="190" y="700"/>
      <point x="160" y="700" type="curve" smooth="yes"/>
      <point x="60" y="700" type="line" smooth="yes"/>
      <point x="30" y="700"/>
      <point x="20" y="690"/>
      <point x="20" y="660" type="curve" smooth="yes"/>
      <point x="20" y="40" type="line" smooth="yes"/>
      <point x="20" y="10"/>
      <point x="30" y="0"/>
    </contour>
  </outline>
</glyph>
<glyph name="M" format="2">
  <advance width="600"/>
  <unicode hex="004D"/>
  <outline>
    <contour>
      <point x="60" y="0" type="curve" smooth="yes"/>
      <point x="150" y="0" type="line" smooth="yes"/>
      <point x="180" y="0"/>
      <point x="190" y="10"/>
      <point x="190" y="40" type="curve" smooth="yes"/>
      <point x="190" y="369" type="line" smooth="yes"/>
      <point x="190" y="383"/>
      <point x="194" y="390"/>
      <point x="204" y="390" type="curve" smooth="yes"/>
      <point x="213" y="390"/>
      <point x="217" y="383"/>
      <point x="220" y="355" type="curve" smooth="yes"/>
      <point x="255" y="40" type="line" smooth="yes"/>
      <point x="257" y="18"/>
      <point x="260" y="0"/>
      <point x="280" y="0" type="curve" smooth="yes"/>
      <point x="320" y="0" type="line" smooth="yes"/>
      <point x="340" y="0"/>
      <point x="343" y="20"/>
      <point x="345" y="40" type="curve" smooth="yes"/>
      <point x="380" y="355" type="line" smooth="yes"/>
      <point x="383" y="383"/>
      <point x="388" y="390"/>
      <point x="396" y="390" type="curve" smooth="yes"/>
      <point x="406" y="390"/>
      <point x="410" y="383"/>
      <point x="410" y="369" type="curve" smooth="yes"/>
      <point x="410" y="40" type="line" smooth="yes"/>
      <point x="410" y="10"/>
      <point x="420" y="0"/>
      <point x="450" y="0" type="curve" smooth="yes"/>
      <point x="540" y="0" type="line" smooth="yes"/>
      <point x="570" y="0"/>
      <point x="580" y="10"/>
      <point x="580" y="40" type="curve" smooth="yes"/>
      <point x="580" y="660" type="line" smooth="yes"/>
      <point x="580" y="690"/>
      <point x="570" y="700"/>
      <point x="540" y="700" type="curve" smooth="yes"/>
      <point x="400" y="700" type="line" smooth="yes"/>
      <point x="375" y="700"/>
      <point x="353" y="689"/>
      <point x="350" y="660" type="curve" smooth="yes"/>
      <point x="314" y="339" type="line" smooth="yes"/>
      <point x="311" y="316"/>
      <point x="308" y="310"/>
      <point x="300" y="310" type="curve" smooth="yes"/>
      <point x="292" y="310"/>
      <point x="289" y="316"/>
      <point x="286" y="339" type="curve" smooth="yes"/>
      <point x="250" y="660" type="line" smooth="yes"/>
      <point x="247" y="688"/>
      <point x="225" y="700"/>
      <point x="200" y="700" type="curve" smooth="yes"/>
      <point x="60" y="700" type="line" smooth="yes"/>
      <point x="30" y="700"/>
      <point x="20" y="690"/>
      <point x="20" y="660" type="curve" smooth="yes"/>
      <point x="20" y="40" type="line" smooth="yes"/>
      <point x="20" y="10"/>
      <point x="30" y="0"/>
    </contour>
  </outline>
</glyph>
<glyph name="Q" format="2">
  <advance width="520"/>
  <unicode hex="0051"/>
  <outline>
    <contour>
      <point x="240" y="-10" type="curve" smooth="yes"/>
      <point x="308" y="-10"/>
      <point x="336" y="30"/>
      <point x="356" y="30" type="curve" smooth="yes"/>
      <point x="370" y="30"/>
      <point x="380" y="0"/>
      <point x="440" y="0" type="curve" smooth="yes"/>
      <point x="460" y="0" type="line" smooth="yes"/>
      <point x="490" y="0"/>
      <point x="500" y="10"/>
      <point x="500" y="40" type="curve" smooth="yes"/>
      <point x="500" y="120" type="line" smooth="yes"/>
      <point x="500" y="150"/>
      <point x="490" y="160"/>
      <point x="460" y="160" type="curve" smooth="yes"/>
      <point x="430" y="160"/>
      <point x="420" y="170"/>
      <point x="420" y="184" type="curve" smooth="yes"/>
      <point x="420" y="214"/>
      <point x="460" y="225"/>
      <point x="460" y="290" type="curve" smooth="yes"/>
      <point x="460" y="500" type="line" smooth="yes"/>
      <point x="460" y="630"/>
      <point x="380" y="710"/>
      <point x="240" y="710" type="curve" smooth="yes"/>
      <point x="100" y="710"/>
      <point x="20" y="630"/>
      <point x="20" y="500" type="curve" smooth="yes"/>
      <point x="20" y="200" type="line" smooth="yes"/>
      <point x="20" y="70"/>
      <point x="100" y="-10"/>
    </contour>
    <contour>
      <point x="240" y="130" type="curve" smooth="yes"/>
      <point x="210" y="130"/>
      <point x="200" y="150"/>
      <point x="200" y="180" type="curve" smooth="yes"/>
      <point x="200" y="520" type="line" smooth="yes"/>
      <point x="200" y="550"/>
      <point x="210" y="570"/>
      <point x="240" y="570" type="curve" smooth="yes"/>
      <point x="270" y="570"/>
      <point x="280" y="550"/>
      <point x="280" y="520" type="curve" smooth="yes"/>
      <point x="280" y="180" type="line" smooth="yes"/>
      <point x="280" y="150"/>
      <point x="270" y="130"/>
    </contour>
  </outline>
</glyph>
<glyph name="R" format="2">
  <advance width="477"/>
  <unicode hex="0052"/>
  <anchor x="240" y="0" name="bottom"/>
  <anchor x="240" y="700" name="top"/>
  <outline>
    <contour>
      <point x="60" y="0" type="curve" smooth="yes"/>
      <point x="160" y="0" type="line" smooth="yes"/>
      <point x="190" y="0"/>
      <point x="200" y="10"/>
      <point x="200" y="40" type="curve" smooth="yes"/>
      <point x="200" y="260" type="line" smooth="yes"/>
      <point x="200" y="275"/>
      <point x="205" y="280"/>
      <point x="220" y="280" type="curve" smooth="yes"/>
      <point x="240" y="280" type="line" smooth="yes"/>
      <point x="270" y="280"/>
      <point x="280" y="270"/>
      <point x="280" y="230" type="curve" smooth="yes"/>
      <point x="280" y="80" type="line" smooth="yes"/>
      <point x="280" y="30"/>
      <point x="290" y="0"/>
      <point x="340" y="0" type="curve" smooth="yes"/>
      <point x="430" y="0" type="line" smooth="yes"/>
      <point x="460" y="0"/>
      <point x="470" y="10"/>
      <point x="470" y="26" type="curve" smooth="yes"/>
      <point x="470" y="43"/>
      <point x="460" y="43"/>
      <point x="460" y="80" type="curve" smooth="yes"/>
      <point x="460" y="210" type="line" smooth="yes"/>
      <point x="460" y="268"/>
      <point x="444" y="303"/>
      <point x="411" y="330" type="curve" smooth="yes"/>
      <point x="394" y="344"/>
      <point x="392" y="346"/>
      <point x="392" y="351" type="curve" smooth="yes"/>
      <point x="392" y="356"/>
      <point x="399" y="360"/>
      <point x="411" y="372" type="curve" smooth="yes"/>
      <point x="441" y="400"/>
      <point x="460" y="437"/>
      <point x="460" y="490" type="curve" smooth="yes"/>
      <point x="460" y="510" type="line" smooth="yes"/>
      <point x="460" y="640"/>
      <point x="380" y="700"/>
      <point x="250" y="700" type="curve" smooth="yes"/>
      <point x="60" y="700" type="line" smooth="yes"/>
      <point x="30" y="700"/>
      <point x="20" y="690"/>
      <point x="20" y="660" type="curve" smooth="yes"/>
      <point x="20" y="40" type="line" smooth="yes"/>
      <point x="20" y="10"/>
      <point x="30" y="0"/>
    </contour>
    <contour>
      <point x="220" y="420" type="line" smooth="yes"/>
      <point x="205" y="420"/>
      <point x="200" y="425"/>
      <point x="200" y="440" type="curve" smooth="yes"/>
      <point x="200" y="530" type="line" smooth="yes"/>
      <point x="200" y="545"/>
      <point x="205" y="550"/>
      <point x="220" y="550" type="curve" smooth="yes"/>
      <point x="240" y="550" type="line" smooth="yes"/>
      <point x="270" y="550"/>
      <point x="280" y="540"/>
      <point x="280" y="500" type="curve" smooth="yes"/>
      <point x="280" y="470" type="line" smooth="yes"/>
      <point x="280" y="430"/>
      <point x="270" y="420"/>
      <point x="240" y="420" type="curve" smooth="yes"/>
    </contour>
  </outline>
</glyph>
<glyph name="S" format="2">
  <advance width="480"/>
  <unicode hex="0053"/>
  <anchor x="240" y="0" name="bottom"/>
  <anchor x="240" y="700" name="top"/>
  <outline>
    <contour>
      <point x="230" y="-10" type="curve" smooth="yes"/>
      <point x="370" y="-10"/>
      <point x="470" y="40"/>
      <point x="470" y="180" type="curve" smooth="yes"/>
      <point x="470" y="263"/>
      <point x="420" y="322"/>
      <point x="317" y="386" type="curve" smooth="yes"/>
      <point x="209" y="453"/>
      <point x="190" y="481"/>
      <point x="190" y="520" type="curve" smooth="yes"/>
      <point x="190" y="550"/>
      <point x="200" y="570"/>
      <point x="230" y="570" type="curve" smooth="yes"/>
      <point x="260" y="570"/>
      <point x="270" y="550"/>
      <point x="270" y="520" type="curve" smooth="yes"/>
      <point x="270" y="500" type="line" smooth="yes"/>
      <point x="270" y="470"/>
      <point x="280" y="460"/>
      <point x="310" y="460" type="curve" smooth="yes"/>
      <point x="410" y="460" type="line" smooth="yes"/>
      <point x="440" y="460"/>
      <point x="450" y="470"/>
      <point x="450" y="500" type="curve" smooth="yes"/>
      <point x="450" y="640"/>
      <point x="370" y="710"/>
      <point x="230" y="710" type="curve" smooth="yes"/>
      <point x="90" y="710"/>
      <point x="10" y="640"/>
      <point x="10" y="500" type="curve" smooth="yes"/>
      <point x="10" y="381"/>
      <point x="84" y="346"/>
      <point x="180" y="287" type="curve" smooth="yes"/>
      <point x="242" y="249"/>
      <point x="270" y="211"/>
      <point x="270" y="180" type="curve" smooth="yes"/>
      <point x="270" y="150"/>
      <point x="260" y="130"/>
      <point x="230" y="130" type="curve" smooth="yes"/>
      <point x="199" y="130"/>
      <point x="190" y="150"/>
      <point x="190" y="180" type="curve" smooth="yes"/>
      <point x="190" y="200" type="line" smooth="yes"/>
      <point x="190" y="230"/>
      <point x="180" y="240"/>
      <point x="150" y="240" type="curve" smooth="yes"/>
      <point x="50" y="240" type="line" smooth="yes"/>
      <point x="20" y="240"/>
      <point x="10" y="230"/>
      <point x="10" y="200" type="curve" smooth="yes"/>
      <point x="10" y="60"/>
      <point x="90" y="-10"/>
    </contour>
  </outline>
</glyph>
<glyph name="U" format="2">
  <advance width="466"/>
  <unicode hex="0055"/>
  <anchor x="238" y="700" name="top"/>
  <outline>
    <contour>
      <point x="233" y="-10" type="curve" smooth="yes"/>
      <point x="373" y="-10"/>
      <point x="448" y="70"/>
      <point x="448" y="200" type="curve" smooth="yes"/>
      <point x="448" y="660" type="line" smooth="yes"/>
      <point x="448" y="690"/>
      <point x="438" y="700"/>
      <point x="408" y="700" type="curve" smooth="yes"/>
      <point x="308" y="700" type="line" smooth="yes"/>
      <point x="278" y="700"/>
      <point x="268" y="690"/>
      <point x="268" y="660" type="curve" smooth="yes"/>
      <point x="268" y="190" type="line" smooth="yes"/>
      <point x="268" y="150"/>
      <point x="253" y="140"/>
      <point x="233" y="140" type="curve" smooth="yes"/>
      <point x="213" y="140"/>
      <point x="198" y="150"/>
      <point x="198" y="190" type="curve" smooth="yes"/>
      <point x="198" y="660" type="line" smooth="yes"/>
      <point x="198" y="690"/>
      <point x="188" y="700"/>
      <point x="158" y="700" type="curve" smooth="yes"/>
      <point x="58" y="700" type="line" smooth="yes"/>
      <point x="28" y="700"/>
      <point x="18" y="690"/>
      <point x="18" y="660" type="curve" smooth="yes"/>
      <point x="18" y="200" type="line" smooth="yes"/>
      <point x="18" y="70"/>
      <point x="93" y="-10"/>
    </contour>
  </outline>
</glyph>
<glyph name="V" format="2">
  <advance width="500"/>
  <unicode hex="0056"/>
  <outline>
    <contour>
      <point x="240" y="150" type="curve" smooth="yes"/>
      <point x="234" y="150"/>
      <point x="231" y="157"/>
      <point x="230" y="170" type="curve" smooth="yes"/>
      <point x="192" y="660" type="line" smooth="yes"/>
      <point x="190" y="691"/>
      <point x="182" y="700"/>
      <point x="162" y="700" type="curve" smooth="yes"/>
      <point x="50" y="700" type="line" smooth="yes"/>
      <point x="20" y="700"/>
      <point x="10" y="690"/>
      <point x="10" y="660" type="curve" smooth="yes"/>
      <point x="10" y="640"/>
      <point x="17" y="600"/>
      <point x="20" y="580" type="curve" smooth="yes"/>
      <point x="100" y="40" type="line" smooth="yes"/>
      <point x="104" y="10"/>
      <point x="120" y="0"/>
      <point x="150" y="0" type="curve" smooth="yes"/>
      <point x="330" y="0" type="line" smooth="yes"/>
      <point x="360" y="0"/>
      <point x="376" y="10"/>
      <point x="380" y="40" type="curve" smooth="yes"/>
      <point x="460" y="580" type="line" smooth="yes"/>
      <point x="463" y="600"/>
      <point x="470" y="640"/>
      <point x="470" y="660" type="curve" smooth="yes"/>
      <point x="470" y="690"/>
      <point x="460" y="700"/>
      <point x="430" y="700" type="curve" smooth="yes"/>
      <point x="318" y="700" type="line" smooth="yes"/>
      <point x="298" y="700"/>
      <point x="290" y="691"/>
      <point x="288" y="660" type="curve" smooth="yes"/>
      <point x="250" y="170" type="line" smooth="yes"/>
      <point x="249" y="157"/>
      <point x="246" y="150"/>
    </contour>
  </outline>
</glyph>
<glyph name="W" format="2">
  <advance width="680"/>
  <unicode hex="0057"/>
  <anchor x="340" y="700" name="top"/>
  <outline>
    <contour>
      <point x="145" y="0" type="curve" smooth="yes"/>
      <point x="257" y="0" type="line" smooth="yes"/>
      <point x="282" y="0"/>
      <point x="293" y="15"/>
      <point x="297" y="40" type="curve" smooth="yes"/>
      <point x="330" y="240" type="line" smooth="yes"/>
      <point x="332" y="252"/>
      <point x="335" y="258"/>
      <point x="340" y="258" type="curve" smooth="yes"/>
      <point x="345" y="258"/>
      <point x="348" y="252"/>
      <point x="350" y="240" type="curve" smooth="yes"/>
      <point x="383" y="40" type="line" smooth="yes"/>
      <point x="387" y="15"/>
      <point x="398" y="0"/>
      <point x="423" y="0" type="curve" smooth="yes"/>
      <point x="535" y="0" type="line" smooth="yes"/>
      <point x="560" y="0"/>
      <point x="570" y="10"/>
      <point x="575" y="40" type="curve" smooth="yes"/>
      <point x="662" y="614" type="line" smooth="yes"/>
      <point x="667" y="647"/>
      <point x="670" y="660"/>
      <point x="670" y="670" type="curve" smooth="yes"/>
      <point x="670" y="690"/>
      <point x="660" y="700"/>
      <point x="640" y="700" type="curve" smooth="yes"/>
      <point x="520" y="700" type="line" smooth="yes"/>
      <point x="490" y="700"/>
      <point x="482" y="690"/>
      <point x="480" y="660" type="curve" smooth="yes"/>
      <point x="465" y="360" type="line" smooth="yes"/>
      <point x="464" y="346"/>
      <point x="460" y="340"/>
      <point x="450" y="340" type="curve" smooth="yes"/>
      <point x="440" y="340"/>
      <point x="437" y="346"/>
      <point x="435" y="360" type="curve" smooth="yes"/>
      <point x="400" y="660" type="line" smooth="yes"/>
      <point x="397" y="682"/>
      <point x="393" y="693"/>
      <point x="379" y="698" type="curve" smooth="yes"/>
      <point x="375" y="699"/>
      <point x="370" y="700"/>
      <point x="365" y="700" type="curve" smooth="yes"/>
      <point x="315" y="700" type="line" smooth="yes"/>
      <point x="310" y="700"/>
      <point x="305" y="699"/>
      <point x="301" y="698" type="curve" smooth="yes"/>
      <point x="287" y="693"/>
      <point x="283" y="682"/>
      <point x="280" y="660" type="curve" smooth="yes"/>
      <point x="245" y="360" type="line" smooth="yes"/>
      <point x="243" y="346"/>
      <point x="240" y="340"/>
      <point x="230" y="340" type="curve" smooth="yes"/>
      <point x="220" y="340"/>
      <point x="216" y="345"/>
      <point x="215" y="360" type="curve" smooth="yes"/>
      <point x="200" y="660" type="line" smooth="yes"/>
      <point x="198" y="691"/>
      <point x="190" y="700"/>
      <point x="160" y="700" type="curve" smooth="yes"/>
      <point x="40" y="700" type="line" smooth="yes"/>
      <point x="20" y="700"/>
      <point x="10" y="690"/>
      <point x="10" y="670" type="curve" smooth="yes"/>
      <point x="10" y="660"/>
      <point x="13" y="647"/>
      <point x="18" y="614" type="curve" smooth="yes"/>
      <point x="105" y="40" type="line" smooth="yes"/>
      <point x="110" y="10"/>
      <point x="120" y="0"/>
    </contour>
  </outline>
</glyph>
<glyph name="X" format="2">
  <advance width="500"/>
  <unicode hex="0058"/>
  <outline>
    <contour>
      <point x="58" y="0" type="curve" smooth="yes"/>
      <point x="153" y="0" type="line" smooth="yes"/>
      <point x="175" y="0"/>
      <point x="186" y="6"/>
      <point x="197" y="39" type="curve" smooth="yes"/>
      <point x="227" y="128" type="line" smooth="yes"/>
      <point x="232" y="142"/>
      <point x="237" y="150"/>
      <point x="244" y="150" type="curve" smooth="yes"/>
      <point x="251" y="150"/>
      <point x="256" y="141"/>
      <point x="262" y="127" type="curve" smooth="yes"/>
      <point x="298" y="39" type="line" smooth="yes"/>
      <point x="309" y="11"/>
      <point x="311" y="0"/>
      <point x="341" y="0" type="curve" smooth="yes"/>
      <point x="460" y="0" type="line" smooth="yes"/>
      <point x="484" y="0"/>
      <point x="490" y="11"/>
      <point x="490" y="25" type="curve" smooth="yes"/>
      <point x="490" y="35"/>
      <point x="481" y="54"/>
      <point x="468" y="83" type="curve" smooth="yes"/>
      <point x="363" y="322" type="line" smooth="yes"/>
      <point x="356" y="338"/>
      <point x="352" y="355"/>
      <point x="352" y="366" type="curve" smooth="yes"/>
      <point x="352" y="377"/>
      <point x="357" y="391"/>
      <point x="363" y="404" type="curve" smooth="yes"/>
      <point x="451" y="604" type="line" smooth="yes"/>
      <point x="464" y="634"/>
      <point x="472" y="653"/>
      <point x="472" y="663" type="curve" smooth="yes"/>
      <point x="472" y="683"/>
      <point x="462" y="700"/>
      <point x="440" y="700" type="curve" smooth="yes"/>
      <point x="346" y="700" type="line" smooth="yes"/>
      <point x="326" y="700"/>
      <point x="316" y="688"/>
      <point x="306" y="660" type="curve" smooth="yes"/>
      <point x="273" y="571" type="line" smooth="yes"/>
      <point x="268" y="557"/>
      <point x="264" y="550"/>
      <point x="256" y="550" type="curve" smooth="yes"/>
      <point x="249" y="550"/>
      <point x="247" y="556"/>
      <point x="240" y="572" type="curve" smooth="yes"/>
      <point x="202" y="660" type="line" smooth="yes"/>
      <point x="189" y="690"/>
      <point x="182" y="700"/>
      <point x="162" y="700" type="curve" smooth="yes"/>
      <point x="50" y="700" type="line" smooth="yes"/>
      <point x="20" y="700"/>
      <point x="10" y="690"/>
      <point x="10" y="670" type="curve" smooth="yes"/>
      <point x="10" y="660"/>
      <point x="15" y="645"/>
      <point x="30" y="614" type="curve" smooth="yes"/>
      <point x="132" y="404" type="line" smooth="yes"/>
      <point x="138" y="392"/>
      <point x="145" y="378"/>
      <point x="145" y="366" type="curve" smooth="yes"/>
      <point x="145" y="352"/>
      <point x="138" y="336"/>
      <point x="133" y="322" type="curve" smooth="yes"/>
      <point x="45" y="83" type="line" smooth="yes"/>
      <point x="33" y="51"/>
      <point x="28" y="35"/>
      <point x="28" y="25" type="curve" smooth="yes"/>
      <point x="28" y="11"/>
      <point x="36" y="0"/>
    </contour>
  </outline>
</glyph>
<glyph name="Z" format="2">
  <advance width="434"/>
  <unicode hex="005A"/>
  <anchor x="225" y="700" name="top"/>
  <outline>
    <contour>
      <point x="50" y="0" type="curve" smooth="yes"/>
      <point x="384" y="0" type="line" smooth="yes"/>
      <point x="414" y="0"/>
      <point x="424" y="10"/>
      <point x="424" y="40" type="curve" smooth="yes"/>
      <point x="424" y="118" type="line" smooth="yes"/>
      <point x="424" y="148"/>
      <point x="414" y="158"/>
      <point x="383" y="158" type="curve" smooth="yes"/>
      <point x="234" y="158" type="line" smooth="yes"/>
      <point x="223" y="158"/>
      <point x="216" y="166"/>
      <point x="216" y="175" type="curve" smooth="yes"/>
      <point x="216" y="191"/>
      <point x="223" y="209"/>
      <point x="239" y="235" type="curve" smooth="yes"/>
      <point x="384" y="509" type="line" smooth="yes"/>
      <point x="408" y="554"/>
      <point x="424" y="587"/>
      <point x="424" y="621" type="curve" smooth="yes"/>
      <point x="424" y="660" type="line" smooth="yes"/>
      <point x="424" y="690"/>
      <point x="414" y="700"/>
      <point x="384" y="700" type="curve" smooth="yes"/>
      <point x="51" y="700" type="line" smooth="yes"/>
      <point x="20" y="700"/>
      <point x="10" y="690"/>
      <point x="10" y="660" type="curve" smooth="yes"/>
      <point x="10" y="602" type="line" smooth="yes"/>
      <point x="10" y="577"/>
      <point x="20" y="562"/>
      <point x="50" y="562" type="curve" smooth="yes"/>
      <point x="174" y="562" type="line" smooth="yes"/>
      <point x="204" y="562"/>
      <point x="214" y="552"/>
      <point x="214" y="532" type="curve" smooth="yes"/>
      <point x="214" y="512"/>
      <point x="202" y="494"/>
      <point x="188" y="467" type="curve" smooth="yes"/>
      <point x="48" y="197" type="line" smooth="yes"/>
      <point x="27" y="161"/>
      <point x="10" y="108"/>
      <point x="10" y="80" type="curve" smooth="yes"/>
      <point x="10" y="40" type="line" smooth="yes"/>
      <point x="10" y="10"/>
      <point x="20" y="0"/>
    </contour>
  </outline>
</glyph>
<glyph name="underscore" format="2">
  <advance width="500"/>
  <unicode hex="005F"/>
  <outline>
    <contour>
      <point x="60" y="-160" type="curve" smooth="yes"/>
      <point x="440" y="-160" type="line" smooth="yes"/>
      <point x="470" y="-160"/>
      <point x="480" y="-150"/>
      <point x="480" y="-120" type="curve" smooth="yes"/>
      <point x="480" y="-60" type="line" smooth="yes"/>
      <point x="480" y="-30"/>
      <point x="470" y="-20"/>
      <point x="440" y="-20" type="curve" smooth="yes"/>
      <point x="60" y="-20" type="line" smooth="yes"/>
      <point x="30" y="-20"/>
      <point x="20" y="-30"/>
      <point x="20" y="-60" type="curve" smooth="yes"/>
      <point x="20" y="-120" type="line" smooth="yes"/>
      <point x="20" y="-150"/>
      <point x="30" y="-160"/>
    </contour>
  </outline>
</glyph>
<glyph name="dieresis" format="2">
  <advance width="600"/>
  <unicode hex="00A8"/>
  <outline>
    <contour>
      <point x="245" y="627" type="curve" smooth="yes"/>
      <point x="283" y="627" type="line" smooth="yes"/>
      <point x="296" y="627"/>
      <point x="306" y="636"/>
      <point x="306" y="649" type="curve" smooth="yes"/>
      <point x="306" y="687" type="line" smooth="yes"/>
      <point x="306" y="700"/>
      <point x="296" y="710"/>
      <point x="283" y="710" type="curve" smooth="yes"/>
      <point x="245" y="710" type="line" smooth="yes"/>
      <point x="232" y="710"/>
      <point x="223" y="700"/>
      <point x="223" y="687" type="curve" smooth="yes"/>
      <point x="223" y="649" type="line" smooth="yes"/>
      <point x="223" y="636"/>
      <point x="232" y="627"/>
    </contour>
    <contour>
      <point x="92" y="627" type="curve" smooth="yes"/>
      <point x="130" y="627" type="line" smooth="yes"/>
      <point x="143" y="627"/>
      <point x="153" y="636"/>
      <point x="153" y="649" type="curve" smooth="yes"/>
      <point x="153" y="687" type="line" smooth="yes"/>
      <point x="153" y="700"/>
      <point x="143" y="710"/>
      <point x="130" y="710" type="curve" smooth="yes"/>
      <point x="92" y="710" type="line" smooth="yes"/>
      <point x="79" y="710"/>
      <point x="70" y="700"/>
      <point x="70" y="687" type="curve" smooth="yes"/>
      <point x="70" y="649" type="line" smooth="yes"/>
      <point x="70" y="636"/>
      <point x="79" y="627"/>
    </contour>
  </outline>
</glyph>
<glyph name="periodcentered" format="2">
  <advance width="260"/>
  <unicode hex="00B7"/>
  <outline>
    <contour>
      <point x="80" y="250" type="curve" smooth="yes"/>
      <point x="180" y="250" type="line" smooth="yes"/>
      <point x="210" y="250"/>
      <point x="220" y="260"/>
      <point x="220" y="290" type="curve" smooth="yes"/>
      <point x="220" y="380" type="line" smooth="yes"/>
      <point x="220" y="410"/>
      <point x="210" y="420"/>
      <point x="180" y="420" type="curve" smooth="yes"/>
      <point x="80" y="420" type="line" smooth="yes"/>
      <point x="50" y="420"/>
      <point x="40" y="410"/>
      <point x="40" y="380" type="curve" smooth="yes"/>
      <point x="40" y="290" type="line" smooth="yes"/>
      <point x="40" y="260"/>
      <point x="50" y="250"/>
    </contour>
  </outline>
</glyph>
<glyph name="Eth" format="2">
  <advance width="512"/>
  <unicode hex="00D0"/>
  <outline>
    <contour>
      <point x="95" y="0" type="curve" smooth="yes"/>
      <point x="305" y="0" type="line" smooth="yes"/>
      <point x="435" y="0"/>
      <point x="495" y="60"/>
      <point x="495" y="190" type="curve" smooth="yes"/>
      <point x="495" y="510" type="line" smooth="yes"/>
      <point x="495" y="640"/>
      <point x="415" y="700"/>
      <point x="285" y="700" type="curve" smooth="yes"/>
      <point x="95" y="700" type="line" smooth="yes"/>
      <point x="65" y="700"/>
      <point x="55" y="690"/>
      <point x="55" y="660" type="curve" smooth="yes"/>
      <point x="55" y="447" type="line" smooth="yes"/>
      <point x="55" y="432"/>
      <point x="50" y="427"/>
      <point x="35" y="427" type="curve" smooth="yes"/>
      <point x="30" y="427" type="line" smooth="yes"/>
      <point x="15" y="427"/>
      <point x="10" y="422"/>
      <point x="10" y="407" type="curve" smooth="yes"/>
      <point x="10" y="307" type="line" smooth="yes"/>
      <point x="10" y="292"/>
      <point x="15" y="287"/>
      <point x="30" y="287" type="curve" smooth="yes"/>
      <point x="35" y="287" type="line" smooth="yes"/>
      <point x="50" y="287"/>
      <point x="55" y="282"/>
      <point x="55" y="267" type="curve" smooth="yes"/>
      <point x="55" y="40" type="line" smooth="yes"/>
      <point x="55" y="10"/>
      <point x="65" y="0"/>
    </contour>
    <contour>
      <point x="235" y="170" type="curve" smooth="yes"/>
      <point x="235" y="267" type="line" smooth="yes"/>
      <point x="235" y="282"/>
      <point x="240" y="287"/>
      <point x="255" y="287" type="curve" smooth="yes"/>
      <point x="260" y="287" type="line" smooth="yes"/>
      <point x="275" y="287"/>
      <point x="280" y="292"/>
      <point x="280" y="307" type="curve" smooth="yes"/>
      <point x="280" y="407" type="line" smooth="yes"/>
      <point x="280" y="422"/>
      <point x="275" y="427"/>
      <point x="260" y="427" type="curve" smooth="yes"/>
      <point x="255" y="427" type="line" smooth="yes"/>
      <point x="240" y="427"/>
      <point x="235" y="432"/>
      <point x="235" y="447" type="curve" smooth="yes"/>
      <point x="235" y="530" type="line" smooth="yes"/>
      <point x="235" y="545"/>
      <point x="240" y="550"/>
      <point x="255" y="550" type="curve" smooth="yes"/>
      <point x="275" y="550" type="line" smooth="yes"/>
      <point x="305" y="550"/>
      <point x="315" y="540"/>
      <point x="315" y="500" type="curve" smooth="yes"/>
      <point x="315" y="200" type="line" smooth="yes"/>
      <point x="315" y="160"/>
      <point x="305" y="150"/>
      <point x="275" y="150" type="curve" smooth="yes"/>
      <point x="255" y="150" type="line" smooth="yes"/>
      <point x="240" y="150"/>
      <point x="235" y="155"/>
    </contour>
  </outline>
</glyph>
<glyph name="Aogonek" format="2">
  <advance width="480"/>
  <unicode hex="0104"/>
  <outline>
    <contour>
      <point x="50" y="0" type="curve" smooth="yes"/>
      <point x="162" y="0" type="line" smooth="yes"/>
      <point x="182" y="0"/>
      <point x="189" y="9"/>
      <point x="192" y="40" type="curve" smooth="yes"/>
      <point x="200" y="120" type="line" smooth="yes"/>
      <point x="202" y="135"/>
      <point x="205" y="140"/>
      <point x="220" y="140" type="curve" smooth="yes"/>
      <point x="260" y="140" type="line" smooth="yes"/>
      <point x="275" y="140"/>
      <point x="278" y="135"/>
      <point x="280" y="120" type="curve" smooth="yes"/>
      <point x="288" y="40" type="line" smooth="yes"/>
      <point x="291" y="9"/>
      <point x="314" y="9"/>
      <point x="314" y="-10" type="curve" smooth="yes"/>
      <point x="314" y="-30"/>
      <point x="278" y="-39"/>
      <point x="278" y="-93" type="curve" smooth="yes"/>
      <point x="278" y="-148"/>
      <point x="332" y="-175"/>
      <point x="430" y="-175" type="curve" smooth="yes"/>
      <point x="444" y="-175"/>
      <point x="450" y="-165"/>
      <point x="450" y="-155" type="curve" smooth="yes"/>
      <point x="450" y="-104" type="line" smooth="yes"/>
      <point x="450" y="-92"/>
      <point x="444" y="-84"/>
      <point x="430" y="-84" type="curve" smooth="yes"/>
      <point x="398" y="-84"/>
      <point x="370" y="-71"/>
      <point x="370" y="-51" type="curve" smooth="yes"/>
      <point x="370" y="-27"/>
      <point x="399" y="0"/>
      <point x="430" y="0" type="curve" smooth="yes"/>
      <point x="460" y="0"/>
      <point x="470" y="10"/>
      <point x="470" y="40" type="curve" smooth="yes"/>
      <point x="470" y="60"/>
      <point x="463" y="100"/>
      <point x="460" y="120" type="curve" smooth="yes"/>
      <point x="380" y="660" type="line" smooth="yes"/>
      <point x="376" y="690"/>
      <point x="360" y="700"/>
      <point x="330" y="700" type="curve" smooth="yes"/>
      <point x="150" y="700" type="line" smooth="yes"/>
      <point x="120" y="700"/>
      <point x="104" y="690"/>
      <point x="100" y="660" type="curve" smooth="yes"/>
      <point x="20" y="120" type="line" smooth="yes"/>
      <point x="17" y="100"/>
      <point x="10" y="60"/>
      <point x="10" y="40" type="curve" smooth="yes"/>
      <point x="10" y="10"/>
      <point x="20" y="0"/>
    </contour>
    <contour>
      <point x="230" y="290" type="line" smooth="yes"/>
      <point x="214" y="290"/>
      <point x="210" y="295"/>
      <point x="210" y="306" type="curve" smooth="yes"/>
      <point x="210" y="313"/>
      <point x="211" y="320"/>
      <point x="212" y="331" type="curve" smooth="yes"/>
      <point x="230" y="530" type="line" smooth="yes"/>
      <point x="231" y="543"/>
      <point x="234" y="550"/>
      <point x="240" y="550" type="curve" smooth="yes"/>
      <point x="246" y="550"/>
      <point x="249" y="543"/>
      <point x="250" y="530" type="curve" smooth="yes"/>
      <point x="268" y="331" type="line" smooth="yes"/>
      <point x="269" y="320"/>
      <point x="270" y="313"/>
      <point x="270" y="306" type="curve" smooth="yes"/>
      <point x="270" y="295"/>
      <point x="265" y="290"/>
      <point x="250" y="290" type="curve" smooth="yes"/>
    </contour>
  </outline>
</glyph>
<glyph name="ij" format="2">
  <advance width="448"/>
  <unicode hex="0133"/>
  <anchor x="110" y="700" name="top"/>
  <outline>
    <contour>
      <point x="60" y="200" type="curve" smooth="yes"/>
      <point x="160" y="200" type="line" smooth="yes"/>
      <point x="190" y="200"/>
      <point x="200" y="210"/>
      <point x="200" y="240" type="curve" smooth="yes"/>
      <point x="200" y="660" type="line" smooth="yes"/>
      <point x="200" y="690"/>
      <point x="190" y="700"/>
      <point x="160" y="700" type="curve" smooth="yes"/>
      <point x="60" y="700" type="line" smooth="yes"/>
      <point x="30" y="700"/>
      <point x="20" y="690"/>
      <point x="20" y="660" type="curve" smooth="yes"/>
      <point x="20" y="240" type="line" smooth="yes"/>
      <point x="20" y="210"/>
      <point x="30" y="200"/>
    </contour>
    <contour>
      <point x="60" y="0" type="curve" smooth="yes"/>
      <point x="281" y="0" type="line" smooth="yes"/>
      <point x="421" y="0"/>
      <point x="430" y="60"/>
      <point x="430" y="200" type="curve" smooth="yes"/>
      <point x="430" y="660" type="line" smooth="yes"/>
      <point x="430" y="690"/>
      <point x="420" y="700"/>
      <point x="390" y="700" type="curve" smooth="yes"/>
      <point x="290" y="700" type="line" smooth="yes"/>
      <point x="260" y="700"/>
      <point x="250" y="690"/>
      <point x="250" y="660" type="curve" smooth="yes"/>
      <point x="250" y="170" type="line" smooth="yes"/>
      <point x="250" y="155"/>
      <point x="245" y="150"/>
      <point x="230" y="150" type="curve" smooth="yes"/>
      <point x="60" y="150" type="line" smooth="yes"/>
      <point x="30" y="150"/>
      <point x="20" y="140"/>
      <point x="20" y="110" type="curve" smooth="yes"/>
      <point x="20" y="40" type="line" smooth="yes"/>
      <point x="20" y="10"/>
      <point x="30" y="0"/>
    </contour>
  </outline>
</glyph>
<glyph name="Eng" format="2">
  <advance width="497"/>
  <unicode hex="014A"/>
  <outline>
    <contour>
      <point x="60" y="0" type="curve" smooth="yes"/>
      <point x="150" y="0" type="line" smooth="yes"/>
      <point x="180" y="0"/>
      <point x="190" y="10"/>
      <point x="190" y="40" type="curve" smooth="yes"/>
      <point x="190" y="370" type="line" smooth="yes"/>
      <point x="190" y="386"/>
      <point x="196" y="390"/>
      <point x="203" y="390" type="curve" smooth="yes"/>
      <point x="209" y="390"/>
      <point x="214" y="384"/>
      <point x="216" y="370" type="curve" smooth="yes"/>
      <point x="234" y="260"/>
      <point x="270" y="171"/>
      <point x="270" y="40" type="curve" smooth="yes"/>
      <point x="270" y="-55" type="line" smooth="yes"/>
      <point x="270" y="-70"/>
      <point x="265" y="-75"/>
      <point x="250" y="-75" type="curve" smooth="yes"/>
      <point x="210" y="-75" type="line" smooth="yes"/>
      <point x="180" y="-75"/>
      <point x="170" y="-85"/>
      <point x="170" y="-115" type="curve" smooth="yes"/>
      <point x="170" y="-185" type="line" smooth="yes"/>
      <point x="170" y="-215"/>
      <point x="180" y="-225"/>
      <point x="210" y="-225" type="curve" smooth="yes"/>
      <point x="328" y="-225" type="line" smooth="yes"/>
      <point x="468" y="-225"/>
      <point x="477" y="-165"/>
      <point x="477" y="-25" type="curve" smooth="yes"/>
      <point x="477" y="660" type="line" smooth="yes"/>
      <point x="477" y="690"/>
      <point x="467" y="700"/>
      <point x="437" y="700" type="curve" smooth="yes"/>
      <point x="347" y="700" type="line" smooth="yes"/>
      <point x="317" y="700"/>
      <point x="307" y="690"/>
      <point x="307" y="660" type="curve" smooth="yes"/>
      <point x="307" y="330" type="line" smooth="yes"/>
      <point x="307" y="316"/>
      <point x="303" y="310"/>
      <point x="294" y="310" type="curve" smooth="yes"/>
      <point x="286" y="310"/>
      <point x="283" y="318"/>
      <point x="281" y="330" type="curve" smooth="yes"/>
      <point x="227" y="660" type="line" smooth="yes"/>
      <point x="221" y="695"/>
      <point x="205" y="700"/>
      <point x="180" y="700" type="curve" smooth="yes"/>
      <point x="60" y="700" type="line" smooth="yes"/>
      <point x="30" y="700"/>
      <point x="20" y="690"/>
      <point x="20" y="660" type="curve" smooth="yes"/>
      <point x="20" y="40" type="line" smooth="yes"/>
      <point x="20" y="10"/>
      <point x="30" y="0"/>
    </contour>
  </outline>
</glyph>
<glyph name="Uogonek" format="2">
  <advance width="466"/>
  <unicode hex="0172"/>
  <outline>
    <contour>
      <point x="233" y="-10" type="curve"/>
      <point x="233" y="-30"/>
      <point x="187" y="-38"/>
      <point x="187" y="-92" type="curve" smooth="yes"/>
      <point x="187" y="-147"/>
      <point x="241" y="-174"/>
      <point x="339" y="-174" type="curve" smooth="yes"/>
      <point x="353" y="-174"/>
      <point x="359" y="-164"/>
      <point x="359" y="-154" type="curve" smooth="yes"/>
      <point x="359" y="-103" type="line" smooth="yes"/>
      <point x="359" y="-91"/>
      <point x="353" y="-83"/>
      <point x="339" y="-83" type="curve" smooth="yes"/>
      <point x="307" y="-83"/>
      <point x="279" y="-70"/>
      <point x="279" y="-50" type="curve" smooth="yes"/>
      <point x="279" y="-24"/>
      <point x="314" y="-9"/>
      <point x="346" y="11" type="curve" smooth="yes"/>
      <point x="408" y="50"/>
      <point x="448" y="104"/>
      <point x="448" y="200" type="curve" smooth="yes"/>
      <point x="448" y="660" type="line" smooth="yes"/>
      <point x="448" y="690"/>
      <point x="438" y="700"/>
      <point x="408" y="700" type="curve" smooth="yes"/>
      <point x="308" y="700" type="line" smooth="yes"/>
      <point x="278" y="700"/>
      <point x="268" y="690"/>
      <point x="268" y="660" type="curve" smooth="yes"/>
      <point x="268" y="190" type="line" smooth="yes"/>
      <point x="268" y="150"/>
      <point x="253" y="140"/>
      <point x="233" y="140" type="curve" smooth="yes"/>
      <point x="213" y="140"/>
      <point x="198" y="150"/>
      <point x="198" y="190" type="curve" smooth="yes"/>
      <point x="198" y="660" type="line" smooth="yes"/>
      <point x="198" y="690"/>
      <point x="188" y="700"/>
      <point x="158" y="700" type="curve" smooth="yes"/>
      <point x="58" y="700" type="line" smooth="yes"/>
      <point x="28" y="700"/>
      <point x="18" y="690"/>
      <point x="18" y="660" type="curve" smooth="yes"/>
      <point x="18" y="200" type="line" smooth="yes"/>
      <point x="18" y="60"/>
      <point x="93" y="-10"/>
    </contour>
  </outline>
</glyph>
<glyph name="circumflex" format="2">
  <advance width="600"/>
  <unicode hex="02C6"/>
  <outline>
    <contour>
      <point x="84" y="595" type="curve" smooth="yes"/>
      <point x="101" y="595" type="line" smooth="yes"/>
      <point x="109" y="595"/>
      <point x="121" y="598"/>
      <point x="126" y="602" type="curve" smooth="yes"/>
      <point x="206" y="662" type="line"/>
      <point x="286" y="602" type="line" smooth="yes"/>
      <point x="291" y="598"/>
      <point x="303" y="595"/>
      <point x="311" y="595" type="curve" smooth="yes"/>
      <point x="328" y="595" type="line" smooth="yes"/>
      <point x="338" y="595"/>
      <point x="342" y="598"/>
      <point x="342" y="606" type="curve" smooth="yes"/>
      <point x="342" y="612"/>
      <point x="338" y="618"/>
      <point x="330" y="626" type="curve" smooth="yes"/>
      <point x="243" y="711" type="line" smooth="yes"/>
      <point x="229" y="725"/>
      <point x="221" y="725"/>
      <point x="211" y="725" type="curve" smooth="yes"/>
      <point x="201" y="725" type="line" smooth="yes"/>
      <point x="191" y="725"/>
      <point x="183" y="725"/>
      <point x="169" y="711" type="curve" smooth="yes"/>
      <point x="82" y="626" type="line" smooth="yes"/>
      <point x="74" y="618"/>
      <point x="70" y="612"/>
      <point x="70" y="606" type="curve" smooth="yes"/>
      <point x="70" y="598"/>
      <point x="74" y="595"/>
    </contour>
  </outline>
</glyph>
<glyph name="caron" format="2">
  <advance width="600"/>
  <unicode hex="02C7"/>
  <outline>
    <contour>
      <point x="405" y="660" type="curve" smooth="yes"/>
      <point x="390" y="660" type="line" smooth="yes"/>
      <point x="375" y="660"/>
      <point x="367" y="651"/>
      <point x="350" y="640" type="curve" smooth="yes"/>
      <point x="310" y="615" type="line" smooth="yes"/>
      <point x="301" y="609"/>
      <point x="296" y="606"/>
      <point x="290" y="606" type="curve" smooth="yes"/>
      <point x="284" y="606"/>
      <point x="277" y="609"/>
      <point x="270" y="614" type="curve" smooth="yes"/>
      <point x="230" y="640" type="line" smooth="yes"/>
      <point x="214" y="650"/>
      <point x="205" y="660"/>
      <point x="190" y="660" type="curve" smooth="yes"/>
      <point x="175" y="660" type="line" smooth="yes"/>
      <point x="162" y="660"/>
      <point x="155" y="655"/>
      <point x="155" y="646" type="curve" smooth="yes"/>
      <point x="155" y="634"/>
      <point x="163" y="621"/>
      <point x="175" y="605" type="curve" smooth="yes"/>
      <point x="216" y="550" type="line" smooth="yes"/>
      <point x="232" y="529"/>
      <point x="243" y="520"/>
      <point x="260" y="520" type="curve" smooth="yes"/>
      <point x="320" y="520" type="line" smooth="yes"/>
      <point x="337" y="520"/>
      <point x="354" y="529"/>
      <point x="368" y="550" type="curve" smooth="yes"/>
      <point x="406" y="605" type="line" smooth="yes"/>
      <point x="417" y="621"/>
      <point x="425" y="633"/>
      <point x="425" y="646" type="curve" smooth="yes"/>
      <point x="425" y="655"/>
      <point x="418" y="660"/>
    </contour>
  </outline>
</glyph>
<glyph name="commaturnedabovecomb" format="2">
  <unicode hex="0312"/>
  <anchor x="100" y="700" name="_top"/>
  <outline>
    <contour>
      <point x="150" y="910" type="curve" smooth="yes"/>
      <point x="125" y="910" type="line" smooth="yes"/>
      <point x="110" y="910"/>
      <point x="105" y="915"/>
      <point x="105" y="930" type="curve" smooth="yes"/>
      <point x="105" y="944"/>
      <point x="112" y="960"/>
      <point x="131" y="973" type="curve" smooth="yes"/>
      <point x="143" y="981"/>
      <point x="155" y="987"/>
      <point x="155" y="1004" type="curve" smooth="yes"/>
      <point x="155" y="1020" type="line" smooth="yes"/>
      <point x="155" y="1033"/>
      <point x="149" y="1040"/>
      <point x="135" y="1040" type="curve" smooth="yes"/>
      <point x="62" y="1040"/>
      <point x="10" y="946"/>
      <point x="10" y="870" type="curve" smooth="yes"/>
      <point x="10" y="780" type="line" smooth="yes"/>
      <point x="10" y="750"/>
      <point x="20" y="740"/>
      <point x="50" y="740" type="curve" smooth="yes"/>
      <point x="150" y="740" type="line" smooth="yes"/>
      <point x="180" y="740"/>
      <point x="190" y="750"/>
      <point x="190" y="780" type="curve" smooth="yes"/>
      <point x="190" y="870" type="line" smooth="yes"/>
      <point x="190" y="900"/>
      <point x="180" y="910"/>
    </contour>
  </outline>
</glyph>
<glyph name="Germandbls" format="2">
  <advance width="550"/>
  <unicode hex="1E9E"/>
  <outline>
    <contour>
      <point x="59" y="0" type="curve" smooth="yes"/>
      <point x="160" y="0" type="line" smooth="yes"/>
      <point x="190" y="0"/>
      <point x="200" y="10"/>
      <point x="200" y="40" type="curve" smooth="yes"/>
      <point x="200" y="540" type="line" smooth="yes"/>
      <point x="200" y="555"/>
      <point x="205" y="560"/>
      <point x="220" y="560" type="curve" smooth="yes"/>
      <point x="290" y="560" type="line" smooth="yes"/>
      <point x="320" y="560"/>
      <point x="350" y="550"/>
      <point x="350" y="510" type="curve" smooth="yes"/>
      <point x="350" y="480" type="line" smooth="yes"/>
      <point x="350" y="440"/>
      <point x="340" y="430"/>
      <point x="310" y="430" type="curve" smooth="yes"/>
      <point x="300" y="430" type="line" smooth="yes"/>
      <point x="285" y="430"/>
      <point x="280" y="425"/>
      <point x="280" y="410" type="curve" smooth="yes"/>
      <point x="280" y="310" type="line" smooth="yes"/>
      <point x="280" y="295"/>
      <point x="285" y="290"/>
      <point x="300" y="290" type="curve" smooth="yes"/>
      <point x="310" y="290" type="line" smooth="yes"/>
      <point x="340" y="290"/>
      <point x="350" y="280"/>
      <point x="350" y="230" type="curve" smooth="yes"/>
      <point x="350" y="200" type="line" smooth="yes"/>
      <point x="350" y="150"/>
      <point x="340" y="140"/>
      <point x="310" y="140" type="curve" smooth="yes"/>
      <point x="267" y="140" type="line" smooth="yes"/>
      <point x="252" y="140"/>
      <point x="247" y="135"/>
      <point x="247" y="120" type="curve" smooth="yes"/>
      <point x="247" y="20" type="line" smooth="yes"/>
      <point x="247" y="5"/>
      <point x="252" y="0"/>
      <point x="267" y="0" type="curve" smooth="yes"/>
      <point x="350" y="0" type="line" smooth="yes"/>
      <point x="480" y="0"/>
      <point x="540" y="60"/>
      <point x="540" y="180" type="curve" smooth="yes"/>
      <point x="540" y="210" type="line" smooth="yes"/>
      <point x="540" y="300"/>
      <point x="486" y="337"/>
      <point x="460" y="350" type="curve" smooth="yes"/>
      <point x="455" y="353"/>
      <point x="450" y="355"/>
      <point x="450" y="360" type="curve" smooth="yes"/>
      <point x="450" y="365"/>
      <point x="454" y="366"/>
      <point x="460" y="370" type="curve" smooth="yes"/>
      <point x="483" y="385"/>
      <point x="520" y="420"/>
      <point x="520" y="490" type="curve" smooth="yes"/>
      <point x="520" y="520" type="line" smooth="yes"/>
      <point x="520" y="650"/>
      <point x="420" y="700"/>
      <point x="290" y="700" type="curve" smooth="yes"/>
      <point x="60" y="700" type="line" smooth="yes"/>
      <point x="30" y="700"/>
      <point x="20" y="690"/>
      <point x="20" y="660" type="curve" smooth="yes"/>
      <point x="20" y="40" type="line" smooth="yes"/>
      <point x="20" y="10"/>
      <point x="31" y="0"/>
    </contour>
  </outline>
</glyph>
<glyph name="emdash" format="2">
  <advance width="600"/>
  <unicode hex="2014"/>
  <outline>
    <contour>
      <point x="60" y="280" type="curve" smooth="yes"/>
      <point x="540" y="280" type="line" smooth="yes"/>
      <point x="570" y="280"/>
      <point x="580" y="290"/>
      <point x="580" y="320" type="curve" smooth="yes"/>
      <point x="580" y="380" type="line" smooth="yes"/>
      <point x="580" y="410"/>
      <point x="570" y="420"/>
      <point x="540" y="420" type="curve" smooth="yes"/>
      <point x="60" y="420" type="line" smooth="yes"/>
      <point x="30" y="420"/>
      <point x="20" y="410"/>
      <point x="20" y="380" type="curve" smooth="yes"/>
      <point x="20" y="320" type="line" smooth="yes"/>
      <point x="20" y="290"/>
      <point x="30" y="280"/>
    </contour>
  </outline>
</glyph>
<glyph name="acutecomb.case" format="2">
  <anchor x="120" y="700" name="_top"/>
  <outline>
    <contour>
      <point x="83" y="740" type="curve" smooth="yes"/>
      <point x="153" y="740" type="line" smooth="yes"/>
      <point x="163" y="740"/>
      <point x="173" y="739"/>
      <point x="190" y="760" type="curve" smooth="yes"/>
      <point x="246" y="831" type="line" smooth="yes"/>
      <point x="254" y="842"/>
      <point x="260" y="849"/>
      <point x="260" y="859" type="curve" smooth="yes"/>
      <point x="260" y="873"/>
      <point x="250" y="879"/>
      <point x="230" y="879" type="curve" smooth="yes"/>
      <point x="143" y="879" type="line" smooth="yes"/>
      <point x="123" y="879"/>
      <point x="118" y="880"/>
      <point x="103" y="849" type="curve" smooth="yes"/>
      <point x="73" y="786" type="line" smooth="yes"/>
      <point x="66" y="771"/>
      <point x="63" y="765"/>
      <point x="63" y="760" type="curve" smooth="yes"/>
      <point x="63" y="750"/>
      <point x="68" y="740"/>
    </contour>
  </outline>
</glyph>
<glyph name="caroncomb.case" format="2">
  <anchor x="130" y="700" name="_top"/>
  <anchor x="130" y="870" name="top"/>
  <outline>
    <contour>
      <point x="245" y="880" type="curve" smooth="yes"/>
      <point x="230" y="880" type="line" smooth="yes"/>
      <point x="215" y="880"/>
      <point x="207" y="871"/>
      <point x="190" y="860" type="curve" smooth="yes"/>
      <point x="150" y="835" type="line" smooth="yes"/>
      <point x="141" y="829"/>
      <point x="136" y="826"/>
      <point x="130" y="826" type="curve" smooth="yes"/>
      <point x="124" y="826"/>
      <point x="117" y="829"/>
      <point x="110" y="834" type="curve" smooth="yes"/>
      <point x="70" y="860" type="line" smooth="yes"/>
      <point x="54" y="870"/>
      <point x="45" y="880"/>
      <point x="30" y="880" type="curve" smooth="yes"/>
      <point x="15" y="880" type="line" smooth="yes"/>
      <point x="2" y="880"/>
      <point x="-5" y="875"/>
      <point x="-5" y="866" type="curve" smooth="yes"/>
      <point x="-5" y="854"/>
      <point x="3" y="841"/>
      <point x="15" y="825" type="curve" smooth="yes"/>
      <point x="56" y="770" type="line" smooth="yes"/>
      <point x="72" y="749"/>
      <point x="83" y="740"/>
      <point x="100" y="740" type="curve" smooth="yes"/>
      <point x="160" y="740" type="line" smooth="yes"/>
      <point x="177" y="740"/>
      <point x="194" y="749"/>
      <point x="208" y="770" type="curve" smooth="yes"/>
      <point x="246" y="825" type="line" smooth="yes"/>
      <point x="257" y="841"/>
      <point x="265" y="853"/>
      <point x="265" y="866" type="curve" smooth="yes"/>
      <point x="265" y="875"/>
      <point x="258" y="880"/>
    </contour>
  </outline>
</glyph>
<glyph name="circumflexcomb.case" format="2">
  <anchor x="130" y="700" name="_top"/>
  <anchor x="130" y="870" name="top"/>
  <outline>
    <contour>
      <point x="15" y="740" type="curve" smooth="yes"/>
      <point x="30" y="740" type="line" smooth="yes"/>
      <point x="45" y="740"/>
      <point x="53" y="749"/>
      <point x="70" y="760" type="curve" smooth="yes"/>
      <point x="110" y="785" type="line" smooth="yes"/>
      <point x="119" y="791"/>
      <point x="124" y="794"/>
      <point x="130" y="794" type="curve" smooth="yes"/>
      <point x="136" y="794"/>
      <point x="143" y="791"/>
      <point x="150" y="786" type="curve" smooth="yes"/>
      <point x="190" y="760" type="line" smooth="yes"/>
      <point x="206" y="750"/>
      <point x="215" y="740"/>
      <point x="230" y="740" type="curve" smooth="yes"/>
      <point x="245" y="740" type="line" smooth="yes"/>
      <point x="258" y="740"/>
      <point x="265" y="745"/>
      <point x="265" y="754" type="curve" smooth="yes"/>
      <point x="265" y="766"/>
      <point x="257" y="779"/>
      <point x="245" y="795" type="curve" smooth="yes"/>
      <point x="204" y="850" type="line" smooth="yes"/>
      <point x="188" y="871"/>
      <point x="177" y="880"/>
      <point x="160" y="880" type="curve" smooth="yes"/>
      <point x="100" y="880" type="line" smooth="yes"/>
      <point x="83" y="880"/>
      <point x="66" y="871"/>
      <point x="52" y="850" type="curve" smooth="yes"/>
      <point x="14" y="795" type="line" smooth="yes"/>
      <point x="3" y="779"/>
      <point x="-5" y="767"/>
      <point x="-5" y="754" type="curve" smooth="yes"/>
      <point x="-5" y="745"/>
      <point x="2" y="740"/>
    </contour>
  </outline>
</glyph>
<glyph name="commaaccentcomb.case" format="2">
  <anchor x="300" y="-1" name="_bottom"/>
  <outline>
    <contour>
      <point x="250" y="-225" type="curve" smooth="yes"/>
      <point x="275" y="-225" type="line" smooth="yes"/>
      <point x="290" y="-225"/>
      <point x="295" y="-230"/>
      <point x="295" y="-245" type="curve" smooth="yes"/>
      <point x="295" y="-259"/>
      <point x="288" y="-275"/>
      <point x="269" y="-288" type="curve" smooth="yes"/>
      <point x="257" y="-296"/>
      <point x="245" y="-302"/>
      <point x="245" y="-319" type="curve" smooth="yes"/>
      <point x="245" y="-335" type="line" smooth="yes"/>
      <point x="245" y="-348"/>
      <point x="251" y="-355"/>
      <point x="265" y="-355" type="curve" smooth="yes"/>
      <point x="338" y="-355"/>
      <point x="390" y="-261"/>
      <point x="390" y="-185" type="curve" smooth="yes"/>
      <point x="390" y="-95" type="line" smooth="yes"/>
      <point x="390" y="-65"/>
      <point x="380" y="-55"/>
      <point x="350" y="-55" type="curve" smooth="yes"/>
      <point x="250" y="-55" type="line" smooth="yes"/>
      <point x="220" y="-55"/>
      <point x="210" y="-65"/>
      <point x="210" y="-95" type="curve" smooth="yes"/>
      <point x="210" y="-185" type="line" smooth="yes"/>
      <point x="210" y="-215"/>
      <point x="220" y="-225"/>
    </contour>
  </outline>
</glyph>
<glyph name="macroncomb.case" format="2">
  <anchor x="128" y="700" name="_top"/>
  <anchor x="128" y="851" name="top"/>
  <outline>
    <contour>
      <point x="29" y="740" type="curve" smooth="yes"/>
      <point x="226" y="740" type="line" smooth="yes"/>
      <point x="239" y="740"/>
      <point x="249" y="749"/>
      <point x="249" y="762" type="curve" smooth="yes"/>
      <point x="249" y="830" type="line" smooth="yes"/>
      <point x="249" y="843"/>
      <point x="239" y="853"/>
      <point x="226" y="853" type="curve" smooth="yes"/>
      <point x="29" y="853" type="line" smooth="yes"/>
      <point x="16" y="853"/>
      <point x="7" y="843"/>
      <point x="7" y="830" type="curve" smooth="yes"/>
      <point x="7" y="762" type="line" smooth="yes"/>
      <point x="7" y="749"/>
      <point x="16" y="740"/>
    </contour>
  </outline>
</glyph>
<glyph name="ringcomb.case" format="2">
  <anchor x="125" y="700" name="_top"/>
  <anchor x="125" y="866" name="top"/>
  <outline>
    <contour>
      <point x="125" y="740" type="curve" smooth="yes"/>
      <point x="169" y="740"/>
      <point x="205" y="771"/>
      <point x="205" y="815" type="curve" smooth="yes"/>
      <point x="205" y="859"/>
      <point x="169" y="890"/>
      <point x="125" y="890" type="curve" smooth="yes"/>
      <point x="81" y="890"/>
      <point x="45" y="859"/>
      <point x="45" y="815" type="curve" smooth="yes"/>
      <point x="45" y="771"/>
      <point x="81" y="740"/>
    </contour>
    <contour>
      <point x="125" y="785" type="curve" smooth="yes"/>
      <point x="108" y="785"/>
      <point x="95" y="798"/>
      <point x="95" y="815" type="curve" smooth="yes"/>
      <point x="95" y="832"/>
      <point x="108" y="845"/>
      <point x="125" y="845" type="curve" smooth="yes"/>
      <point x="142" y="845"/>
      <point x="155" y="832"/>
      <point x="155" y="815" type="curve" smooth="yes"/>
      <point x="155" y="798"/>
      <point x="142" y="785"/>
    </contour>
  </outline>
</glyph>
